<?xml version="1.0" standalone="no"?>
<!DOCTYPE svg PUBLIC "-//W3C//DTD SVG 20010904//EN"
 "http://www.w3.org/TR/2001/REC-SVG-20010904/DTD/svg10.dtd">
<svg version="1.0" xmlns="http://www.w3.org/2000/svg"
 width="400.000000pt" height="400.000000pt" viewBox="0 0 400.000000 400.000000"
 preserveAspectRatio="xMidYMid meet">
<metadata>
Created by potrace 1.14, written by Peter Selinger 2001-2017
</metadata>
<g transform="translate(0.000000,400.000000) scale(0.100000,-0.100000)"
fill="#000000" stroke="none">
<path d="M1865 3981 c-3 -2 -24 -5 -47 -7 -60 -5 -117 -12 -158 -19 -19 -4
-45 -7 -57 -8 -13 0 -23 -4 -23 -7 0 -3 -14 -7 -31 -8 -18 -1 -37 -6 -43 -9
-6 -4 -20 -9 -31 -11 -25 -4 -36 -7 -55 -15 -57 -22 -139 -50 -157 -54 -13 -3
-23 -9 -23 -14 0 -5 -3 -8 -8 -7 -11 4 -142 -56 -142 -64 0 -5 -8 -8 -19 -8
-10 0 -24 -7 -31 -15 -7 -8 -16 -12 -21 -10 -4 3 -12 -3 -18 -12 -6 -10 -11
-14 -11 -10 0 5 -12 -1 -26 -12 -15 -12 -33 -21 -40 -21 -8 0 -14 -5 -14 -10
0 -6 -8 -14 -17 -17 -10 -4 -29 -17 -43 -30 -14 -13 -30 -23 -37 -23 -7 0 -16
-6 -20 -13 -4 -6 -24 -24 -43 -38 -19 -15 -53 -44 -75 -65 -22 -21 -43 -37
-47 -36 -5 1 -8 -2 -8 -6 0 -5 -27 -36 -61 -70 -33 -34 -58 -62 -55 -62 3 0
-8 -13 -24 -29 -17 -15 -30 -31 -30 -35 0 -4 -9 -17 -21 -29 -31 -32 -141
-197 -132 -197 5 0 3 -4 -3 -8 -6 -4 -24 -32 -40 -62 -16 -30 -32 -56 -36 -58
-4 -2 -4 -10 -1 -18 3 -8 0 -14 -6 -14 -6 0 -11 -4 -11 -10 0 -5 -11 -34 -25
-64 -14 -30 -25 -62 -25 -70 0 -9 -4 -16 -10 -16 -5 0 -10 -11 -10 -23 0 -13
-3 -27 -7 -31 -5 -4 -8 -11 -9 -14 0 -4 -7 -27 -14 -52 -7 -25 -14 -48 -16
-52 -1 -5 -3 -11 -4 -15 -1 -5 -3 -12 -4 -18 -1 -5 -8 -37 -15 -70 -8 -33 -15
-69 -15 -80 -1 -11 -4 -24 -7 -30 -3 -5 -5 -25 -4 -42 0 -18 -2 -33 -6 -33 -3
0 -5 -20 -4 -45 1 -25 -1 -45 -4 -45 -8 0 -5 -235 4 -330 4 -41 8 -90 9 -107
0 -18 4 -33 8 -33 4 0 7 -8 7 -17 1 -22 8 -78 11 -78 1 0 4 -13 6 -30 3 -16 9
-41 14 -55 5 -14 11 -34 13 -45 2 -11 7 -28 10 -37 11 -27 18 -53 17 -53 -3 0
41 -110 62 -155 12 -25 22 -47 23 -50 12 -32 37 -80 45 -85 6 -4 8 -11 5 -16
-4 -5 -1 -9 4 -9 6 0 11 -6 11 -13 0 -12 115 -197 129 -207 4 -3 18 -21 31
-40 13 -19 35 -45 47 -58 13 -12 21 -22 18 -22 -3 0 16 -22 43 -49 28 -28 47
-52 44 -55 -3 -3 2 -6 11 -6 10 0 17 -8 17 -17 0 -9 2 -14 5 -11 3 3 21 -9 39
-26 67 -63 186 -161 186 -152 0 4 14 -7 31 -24 18 -16 36 -30 40 -30 4 0 28
-14 52 -30 25 -17 50 -30 56 -30 6 0 11 -5 11 -11 0 -5 5 -7 10 -4 5 3 10 1
10 -5 0 -6 4 -9 9 -6 5 4 11 3 13 -1 3 -7 94 -57 107 -59 3 0 20 -7 36 -14 17
-7 32 -14 35 -15 3 0 15 -6 28 -13 12 -7 22 -10 22 -6 0 3 11 -1 25 -10 14 -9
25 -14 25 -11 0 3 9 1 21 -5 20 -11 61 -22 87 -23 6 0 12 -4 12 -9 0 -4 3 -7
8 -7 4 1 9 0 12 -1 6 -2 36 -8 80 -15 19 -3 42 -8 50 -12 8 -3 26 -8 40 -9 14
-2 41 -6 60 -9 161 -24 415 -23 565 1 17 2 41 6 55 8 14 3 41 7 60 11 19 4 45
8 57 9 13 2 26 6 30 9 3 4 17 7 30 7 12 0 23 4 23 9 0 6 9 8 20 6 11 -2 20 1
20 7 0 6 3 9 6 5 4 -3 22 0 40 8 19 8 34 11 34 8 0 -3 7 0 15 7 8 7 15 9 15 4
0 -5 4 -4 8 1 8 11 69 36 90 38 6 0 12 4 12 9 0 4 6 8 13 8 15 0 141 62 145
73 2 4 12 7 23 7 10 0 19 4 19 8 0 5 15 16 33 26 58 31 78 43 103 65 13 11 29
21 34 21 6 0 10 5 10 12 0 6 3 9 6 5 4 -3 20 7 36 23 16 17 33 30 36 30 4 0
25 17 46 38 22 20 52 46 66 57 15 11 29 25 31 30 2 6 16 21 31 33 15 13 28 30
28 38 0 9 4 13 9 10 4 -3 19 9 32 26 13 17 29 36 34 42 40 42 84 104 78 109
-3 4 1 7 11 7 9 0 15 4 12 8 -3 5 2 18 12 28 20 22 77 115 118 194 16 30 32
56 36 58 4 2 4 10 1 18 -3 8 0 14 6 14 6 0 11 6 11 13 0 6 6 24 14 39 12 23
39 95 41 108 0 3 3 10 6 15 10 16 50 151 52 174 1 12 4 21 7 21 5 0 11 36 13
83 1 9 5 17 9 17 4 0 6 8 6 18 0 9 3 40 6 67 4 28 9 72 11 98 3 26 7 52 10 57
4 6 0 10 -7 10 -8 0 -9 3 -3 8 20 13 5 331 -20 447 -3 17 -8 41 -10 55 -2 14
-8 39 -13 57 -6 17 -8 34 -4 37 3 3 0 6 -6 6 -6 0 -9 7 -6 15 3 8 2 20 -2 27
-5 7 -10 21 -11 30 -6 35 -8 43 -16 49 -5 3 -9 12 -11 20 -3 20 -16 60 -26 84
-4 11 -17 40 -27 65 -11 25 -26 60 -34 78 -8 17 -18 32 -22 32 -5 0 -6 4 -2 9
3 5 1 12 -5 16 -6 4 -8 11 -5 16 4 5 2 9 -3 9 -5 0 -22 25 -37 55 -16 30 -32
55 -37 55 -5 0 -6 5 -3 10 3 6 1 10 -4 10 -6 0 -11 7 -11 15 0 8 -4 15 -10 15
-5 0 -10 6 -10 14 0 8 -7 17 -16 20 -9 4 -14 9 -11 12 5 5 -10 27 -40 59 -7 8
-13 16 -13 18 0 10 -75 92 -166 182 -86 85 -120 116 -175 158 -13 10 -37 29
-54 42 -16 14 -38 28 -47 31 -10 3 -18 9 -18 13 0 3 -25 20 -55 36 -30 17 -55
33 -55 38 0 4 -9 7 -19 7 -11 0 -22 4 -25 8 -11 18 -274 136 -326 147 -8 2
-15 4 -15 5 0 1 -11 3 -24 6 -14 2 -29 8 -35 12 -6 5 -21 7 -33 6 -13 0 -23 3
-23 8 0 6 -7 8 -15 4 -8 -3 -15 -2 -15 2 0 5 -10 8 -22 9 -13 1 -35 4 -50 7
-87 19 -97 20 -203 31 -75 8 -324 13 -330 6z"/>
</g>
</svg>
